<svg width="21" height="20" viewBox="0 0 21 20" fill="none" xmlns="http://www.w3.org/2000/svg">
<path d="M14.1256 0.203381C14.158 0.210673 14.1904 0.217965 14.2238 0.225478C15.415 0.496483 16.5385 1.02135 17.481 1.80016C17.5148 1.82795 17.5148 1.82795 17.5493 1.85631C17.9999 2.22916 18.4089 2.6225 18.7686 3.08537C18.7849 3.10607 18.8012 3.12677 18.8181 3.1481C19.6495 4.20781 20.1779 5.46236 20.4073 6.78521C20.4177 6.8429 20.4177 6.8429 20.4283 6.90176C20.4938 7.30201 20.5008 7.6973 20.4999 8.10207C20.4999 8.13718 20.4999 8.17229 20.4999 8.20846C20.4986 8.78541 20.4617 9.33712 20.3292 9.90088C20.318 9.94901 20.318 9.94901 20.3065 9.99811C20.257 10.2021 20.1982 10.4021 20.1342 10.6019C20.126 10.6281 20.1179 10.6544 20.1095 10.6814C19.8859 11.3964 19.5574 12.0956 19.1197 12.705C19.1022 12.7297 19.0846 12.7544 19.0666 12.7799C18.7974 13.1566 18.5059 13.5024 18.1833 13.8344C18.1529 13.8664 18.1224 13.8984 18.091 13.9313C17.8765 14.1519 17.6459 14.3467 17.403 14.5354C17.3822 14.5518 17.3614 14.5681 17.34 14.585C15.6673 15.8925 13.5323 16.4403 11.4334 16.1898C10.3889 16.0511 9.42804 15.7168 8.50741 15.2112C8.47356 15.193 8.43971 15.1748 8.40484 15.1561C8.37697 15.1404 8.34911 15.1247 8.3204 15.1085C8.19948 15.0695 8.12276 15.0885 8.00004 15.1196C7.9034 15.1878 7.9034 15.1878 7.81602 15.2804C7.78114 15.3151 7.74625 15.3497 7.71031 15.3855C7.67234 15.4242 7.63438 15.4629 7.59643 15.5016C7.55594 15.5422 7.5154 15.5828 7.47483 15.6233C7.38762 15.7106 7.30072 15.7981 7.21406 15.886C7.07676 16.0251 6.93876 16.1635 6.80068 16.3019C6.58203 16.5212 6.36386 16.7409 6.14587 16.9608C5.75635 17.3537 5.36615 17.746 4.97562 18.138C4.83878 18.2753 4.70219 18.4129 4.56579 18.5507C4.48043 18.6369 4.3949 18.7229 4.30933 18.8089C4.27003 18.8484 4.23081 18.8881 4.19166 18.9278C3.63803 19.489 3.02712 19.9931 2.20366 20C1.67669 20.0005 1.33618 19.8332 0.960771 19.4675C0.570695 19.0585 0.492814 18.6872 0.500499 18.1376C0.507291 17.934 0.544016 17.76 0.625931 17.5732C0.646526 17.5249 0.646526 17.5249 0.667538 17.4757C1.00894 16.739 1.71437 16.1712 2.28284 15.6096C2.4109 15.483 2.53872 15.3562 2.66648 15.2294C2.71047 15.1857 2.75446 15.142 2.79845 15.0984C2.82045 15.0765 2.84244 15.0547 2.86511 15.0322C3.16186 14.7377 3.45879 14.4433 3.75628 14.1495C3.95806 13.9502 4.1595 13.7506 4.36055 13.5505C4.46664 13.445 4.57289 13.3396 4.67959 13.2347C4.77961 13.1363 4.87916 13.0375 4.97839 12.9384C5.03217 12.8849 5.08644 12.8318 5.14072 12.7788C5.17266 12.7467 5.20459 12.7146 5.23749 12.6816C5.26538 12.654 5.29327 12.6264 5.32201 12.5979C5.40061 12.4901 5.41479 12.4084 5.42495 12.2766C5.40134 12.193 5.40134 12.193 5.35439 12.1193C5.33825 12.0906 5.32212 12.062 5.30549 12.0325C5.28778 12.0022 5.27007 11.9719 5.25182 11.9407C4.93469 11.3692 4.70246 10.7636 4.52758 10.1346C4.52055 10.1099 4.51352 10.0852 4.50628 10.0598C3.95655 8.09259 4.28794 5.9362 5.26547 4.16008C5.63566 3.51222 6.08913 2.93814 6.61246 2.40751C6.66252 2.35655 6.71165 2.3047 6.76051 2.2526C7.65299 1.31424 8.91825 0.680517 10.1459 0.320218C10.1734 0.312098 10.2009 0.303977 10.2292 0.295611C10.4081 0.243975 10.5879 0.201955 10.7702 0.164435C10.7968 0.158611 10.8234 0.152788 10.8508 0.146788C11.8881 -0.0715405 13.0982 -0.0411001 14.1256 0.203381ZM11.0823 2.30645C11.0361 2.31806 11.0361 2.31806 10.989 2.3299C9.79186 2.64086 8.62592 3.27653 7.84397 4.25374C7.82697 4.27497 7.80997 4.2962 7.79246 4.31807C7.06681 5.23245 6.54362 6.31136 6.43938 7.48624C6.43554 7.52415 6.43554 7.52415 6.43163 7.56284C6.28621 9.04566 6.71953 10.6162 7.65621 11.7849C7.98983 12.1807 8.32669 12.5473 8.74135 12.8608C8.77535 12.8871 8.80935 12.9134 8.84438 12.9405C9.65899 13.5539 10.6869 13.9738 11.7066 14.0681C11.7328 14.0706 11.759 14.0732 11.7859 14.0758C13.318 14.2171 14.8714 13.7853 16.0764 12.8218C16.1802 12.733 16.2818 12.6429 16.3814 12.5495C16.4666 12.4713 16.4666 12.4713 16.5672 12.3917C16.709 12.2774 16.8192 12.144 16.9348 12.0039C16.9647 11.9678 16.9946 11.9317 17.0253 11.8944C18.0455 10.6176 18.4677 9.07376 18.3299 7.45248C18.3066 7.25302 18.269 7.05834 18.2223 6.86311C18.2165 6.83762 18.2107 6.81212 18.2046 6.78586C17.9473 5.68165 17.3895 4.76634 16.6227 3.94217C16.5889 3.9046 16.5889 3.9046 16.5544 3.86626C15.627 2.88063 14.1752 2.24976 12.8278 2.18334C11.948 2.16874 11.948 2.16874 11.0823 2.30645Z" fill="black"/>
<path d="M15.0843 3.82483C15.2622 4.00744 15.3421 4.21311 15.3745 4.46257C15.3383 4.762 15.2397 4.99211 15.0016 5.18185C14.7537 5.33411 14.5097 5.33517 14.226 5.30477C14.0758 5.26366 13.9345 5.21549 13.789 5.16024C12.9867 4.87222 12.0556 4.99066 11.2918 5.33063C11.2558 5.3478 11.2198 5.36497 11.1827 5.38266C11.1467 5.39983 11.1107 5.417 11.0736 5.43469C10.7935 5.57763 10.5595 5.7594 10.3243 5.96685C10.2999 5.98748 10.2755 6.00811 10.2504 6.02937C9.94441 6.30764 9.72201 6.69411 9.54043 7.06134C9.40911 7.32582 9.28816 7.53522 8.99777 7.64152C8.72464 7.70898 8.46682 7.7003 8.21744 7.56362C8.00914 7.41032 7.88198 7.2325 7.82727 6.97944C7.79677 6.70974 7.86974 6.52135 7.98334 6.27841C8.00079 6.24046 8.01824 6.20251 8.03622 6.1634C8.1641 5.89647 8.31201 5.65745 8.49055 5.42161C8.51283 5.39138 8.53511 5.36116 8.55807 5.33002C9.42119 4.20211 10.656 3.5179 12.052 3.29841C12.9938 3.17627 14.2905 3.2361 15.0843 3.82483Z" fill="black"/>
</svg>
